<?xml version="1.0" encoding="UTF-8"?>
<svg id="Calque_1" xmlns="http://www.w3.org/2000/svg" version="1.1" viewBox="0 0 572.4 77.35">
  <!-- Generator: Adobe Illustrator 30.4.0, SVG Export Plug-In . SVG Version: 2.1.4 Build 226)  -->
  <path d="M201.11,0h-30.94v15.47h38.68c4.27,0,7.74,3.46,7.74,7.74v38.68h-46.41V15.47h-15.47L139.24,0h-61.88v15.47h-15.47L46.41,0H15.47v15.47h38.68c4.27,0,7.74,3.46,7.74,7.74v38.68H15.47V15.47H0v46.41l15.47,15.47h46.41l15.47-15.47V23.21c0-4.27,3.46-7.74,7.74-7.74h23.21v61.88h15.47V15.47h23.21c4.27,0,7.74,3.46,7.74,7.74v38.68l15.47,15.47h46.41l15.47-15.47V15.47h-15.47L201.13,0h-.02Z" fill="#fff"/>
  <path d="M293.93,0h-30.94v15.47h38.68c4.27,0,7.74,3.46,7.74,7.74v54.15h15.47V15.47h-15.47L293.94,0h0Z" fill="#fff"/>
  <polygon points="247.52 30.94 247.52 46.41 247.52 61.88 247.52 77.35 262.99 77.35 262.99 61.88 262.99 46.41 262.99 30.94 262.99 15.47 247.52 15.47 247.52 30.94" fill="#fff"/>
  <path d="M386.75,0h-30.94v15.47h38.68c4.27,0,7.73,3.46,7.73,7.74v38.68h-46.41V15.47h-15.47v46.41l15.47,15.47h46.41l15.47-15.47V15.47h-15.47L386.75,0Z" fill="#fff"/>
  <path d="M479.57,0h-30.94v15.47h38.68c4.27,0,7.74,3.46,7.74,7.74v54.15h15.47V15.47h-15.47L479.58,0h0Z" fill="#fff"/>
  <polygon points="433.16 30.94 433.16 46.41 433.16 61.88 433.16 77.35 448.63 77.35 448.63 61.88 448.63 46.41 448.63 30.94 448.63 15.47 433.16 15.47 433.16 30.94" fill="#fff"/>
  <path d="M556.93,15.47L541.46,0h-30.94v15.47h38.68c4.27,0,7.74,3.46,7.74,7.74v54.15h15.47V15.47h-15.48Z" fill="#fff"/>
</svg>